
<svg width="34" height="33" viewBox="0 0 34 33" fill="none" xmlns="http://www.w3.org/2000/svg">
<g clip-path="url(#clip0)">
<path d="M26.3269 7.91202C26.1161 7.69896 25.8651 7.52981 25.5885 7.41438C25.3119 7.29894 25.0152 7.2395 24.7154 7.2395C24.4157 7.2395 24.1189 7.29894 23.8423 7.41438C23.5657 7.52981 23.3147 7.69896 23.1039 7.91202L10.7339 20.28L4.88492 14.46C4.67409 14.2468 4.42306 14.0775 4.14635 13.962C3.86965 13.8465 3.57278 13.787 3.27292 13.787C2.97307 13.787 2.6762 13.8465 2.39949 13.962C2.12279 14.0775 1.87176 14.2468 1.66092 14.46C1.23261 14.8908 0.992188 15.4736 0.992188 16.081C0.992188 16.6885 1.23261 17.2713 1.66092 17.702L10.0949 26.134C10.2627 26.3005 10.4895 26.3939 10.7259 26.3939C10.9623 26.3939 11.1891 26.3005 11.3569 26.134L26.3269 11.14C27.2049 10.243 27.2049 8.79503 26.3269 7.91103V7.91202Z" fill="#17A325"/>
<path d="M11.804 12.653L19.817 4.61801C20.2453 4.18725 20.4858 3.60448 20.4858 2.99701C20.4858 2.38955 20.2453 1.80678 19.817 1.37601C19.6062 1.16295 19.3552 0.993804 19.0786 0.878367C18.802 0.76293 18.5053 0.703491 18.2055 0.703491C17.9058 0.703491 17.609 0.76293 17.3324 0.878367C17.0558 0.993804 16.8048 1.16295 16.594 1.37601L8.59403 9.42401C8.16571 9.85478 7.92529 10.4376 7.92529 11.045C7.92529 11.6525 8.16571 12.2353 8.59403 12.666C8.80438 12.8782 9.05488 13.0464 9.3309 13.1608C9.60693 13.2752 9.90297 13.3334 10.2018 13.3322C10.5005 13.331 10.7961 13.2703 11.0712 13.1537C11.3463 13.0371 11.5954 12.8669 11.804 12.653V12.653ZM32.825 14.447C32.6142 14.2338 32.3632 14.0645 32.0865 13.949C31.8098 13.8335 31.5129 13.774 31.213 13.774C30.9132 13.774 30.6163 13.8335 30.3396 13.949C30.0629 14.0645 29.8119 14.2338 29.601 14.447L21.142 22.944C20.7137 23.3748 20.4733 23.9576 20.4733 24.565C20.4733 25.1725 20.7137 25.7553 21.142 26.186C21.3528 26.3991 21.6038 26.5682 21.8804 26.6837C22.157 26.7991 22.4538 26.8585 22.7535 26.8585C23.0533 26.8585 23.35 26.7991 23.6266 26.6837C23.9032 26.5682 24.1542 26.3991 24.365 26.186L32.825 17.689C33.2533 17.2583 33.4938 16.6755 33.4938 16.068C33.4938 15.4606 33.2533 14.8778 32.825 14.447V14.447Z" fill="#6EDC37"/>
<path d="M17.2688 32.414C17.5776 32.4131 17.8831 32.3514 18.168 32.2324C18.4529 32.1134 18.7115 31.9394 18.9292 31.7205C19.1468 31.5015 19.3192 31.2418 19.4365 30.9562C19.5538 30.6706 19.6137 30.3647 19.6128 30.056C19.6137 29.7473 19.5538 29.4414 19.4365 29.1558C19.3192 28.8702 19.1468 28.6105 18.9292 28.3915C18.7115 28.1726 18.4529 27.9986 18.168 27.8796C17.8831 27.7606 17.5776 27.6989 17.2688 27.698C16.9601 27.6989 16.6545 27.7606 16.3697 27.8796C16.0848 27.9986 15.8261 28.1726 15.6085 28.3915C15.3908 28.6105 15.2184 28.8702 15.1011 29.1558C14.9838 29.4414 14.9239 29.7473 14.9248 30.056C14.9239 30.3647 14.9838 30.6706 15.1011 30.9562C15.2184 31.2418 15.3908 31.5015 15.6085 31.7205C15.8261 31.9394 16.0848 32.1134 16.3697 32.2324C16.6545 32.3514 16.9601 32.4131 17.2688 32.414V32.414Z" fill="#6EDC37"/>
</g>
<defs>
<clipPath id="clip0">
<rect width="32.5015" height="31.7105" fill="white" transform="translate(0.992188 0.703491)"/>
</clipPath>
</defs>
</svg>
